<svg width="40" height="40" viewBox="0 0 40 40" fill="none" xmlns="http://www.w3.org/2000/svg">
<path d="M20 0.5C30.7696 0.5 39.5 9.23045 39.5 20C39.5 30.7696 30.7696 39.5 20 39.5C9.23045 39.5 0.5 30.7696 0.5 20C0.5 9.23045 9.23045 0.5 20 0.5Z" stroke="#CFCBCA"/>
<path d="M20.4116 24.925V15.075H23.4011C26.8313 15.075 28.4983 17.0312 28.4983 19.8966V20.0206C28.4983 22.8861 26.8313 24.925 23.3735 24.925H20.4116ZM22.2439 23.4784H23.3184C25.5226 23.4784 26.5834 22.211 26.5834 20.0344V19.9242C26.5834 17.8026 25.619 16.5215 23.3046 16.5215H22.2439V23.4784Z" fill="white"/>
<path d="M11.5022 24.925V15.075H13.3344V19.5384L17.1091 15.075H19.0791L15.0014 19.7726L19.2858 24.925H17.1229L13.3344 20.3237V24.925H11.5022Z" fill="white"/>
</svg>
