<svg width="50" height="24" viewBox="0 0 50 24" fill="none" xmlns="http://www.w3.org/2000/svg">
<path fill-rule="evenodd" clip-rule="evenodd" d="M23.5238 23.7239H20.9961V0H23.5238V23.7239ZM0 23.7239H2.46731L4.54343 17.4015H13.4197L15.5259 23.7239H18.1137L10.832 1.77983H7.40187L0 23.7239ZM8.99614 3.98976L12.7272 15.2838H5.26512L8.99614 3.98976ZM27.9111 23.7239H30.4384V0H27.9111V23.7239ZM47.8098 19.0896C47.2682 22.3123 44.6504 24 41.0998 24C36.6468 24 33.4874 20.8083 33.4874 15.867V15.6215C33.4874 10.7724 36.5264 7.39623 40.8592 7.39623C44.4999 7.39623 47.93 9.6368 47.93 15.3761V16.2046H36.0751C36.1953 19.8569 37.9103 21.8823 41.1298 21.8823C43.5671 21.8823 44.9814 20.9619 45.3125 19.0896H47.8098ZM36.1646 14.1486C36.5858 11.2942 38.3008 9.51425 40.8582 9.51425C43.4459 9.51425 45.131 10.834 45.3716 14.1486H36.1646ZM36.9175 1.87208V3.83624H44.8009V1.87208H36.9175Z" fill="white"/>
<path d="M48.1345 23.3722H48.3511V22.9797H48.4546L48.6939 23.3722H48.9191L48.6578 22.9426C48.775 22.9055 48.8607 22.8224 48.8607 22.6699V22.6655C48.8607 22.4575 48.7119 22.3605 48.4819 22.3605H48.1345V23.3722ZM48.3511 22.8272V22.5314H48.4773C48.5854 22.5314 48.6488 22.5681 48.6488 22.6747V22.6791C48.6488 22.7761 48.5901 22.8272 48.4773 22.8272H48.3511ZM48.4773 23.7327C48.0174 23.7327 47.6566 23.3909 47.6566 22.8827C47.6566 22.3789 47.9994 22.0231 48.4773 22.0231C48.9552 22.0231 49.2979 22.3741 49.2979 22.8779C49.2979 23.3817 48.9418 23.7327 48.4773 23.7327ZM48.4773 23.8991C49.0366 23.8991 49.4785 23.4556 49.4785 22.8779C49.4785 22.3094 49.0456 21.8567 48.4773 21.8567C47.9179 21.8567 47.4761 22.3142 47.4761 22.8827C47.4761 23.46 47.9226 23.8991 48.4773 23.8991Z" fill="white"/>
</svg>
