<svg width="16" height="17" viewBox="0 0 16 17" fill="none" xmlns="http://www.w3.org/2000/svg">
<path d="M11.8268 6.6847C11.8268 3.84481 9.5246 1.54262 6.6847 1.54262C3.84481 1.54262 1.54262 3.84481 1.54262 6.6847C1.54262 9.5246 3.84481 11.8268 6.6847 11.8268C9.5246 11.8268 11.8268 9.5246 11.8268 6.6847ZM13.3604 7.02918C13.2744 8.72233 12.5572 10.2479 11.4411 11.3789L15.9716 15.9093L14.8809 17L10.2309 12.35C9.2029 12.9949 7.98786 13.3694 6.6847 13.3694C2.99284 13.3694 1.61376e-07 10.3766 0 6.6847L0.00903881 6.34023C0.188327 2.80847 3.10838 4.13065e-07 6.6847 0L7.02918 0.00903881C10.5609 0.188327 13.3694 3.10838 13.3694 6.6847L13.3604 7.02918Z" fill="#090909"/>
</svg>
